<svg id="Layer_1" data-name="Layer 1" xmlns="http://www.w3.org/2000/svg" viewBox="0 0 556 675"><defs><style>.cls-1,.cls-2,.cls-3,.cls-4,.cls-5,.cls-6,.cls-7,.cls-8{fill:none;stroke:#005737;stroke-linecap:round;stroke-linejoin:round;}.cls-1{stroke-width:22.3px;}.cls-2{stroke-width:22.68px;}.cls-3{stroke-width:22.68px;}.cls-4{stroke-width:22.68px;}.cls-5{stroke-width:22.68px;}.cls-6{stroke-width:22.68px;}.cls-7{stroke-width:22.68px;}.cls-8{stroke-width:22.68px;}.cls-9{fill:#005737;}</style></defs><line class="cls-1" x1="58" y1="21.5" x2="498" y2="21.5"/><path class="cls-2" d="M100.5,650.5H77a32.39,32.39,0,0,1-31.88-26.7L28.5,542.5H79"/><path class="cls-3" d="M158.83,650.5H143.19c-10.46,0-19.42-11.25-21.26-26.7l-11.1-81.3h33.75"/><path class="cls-4" d="M217.17,650.5h-7.83c-5.23,0-9.7-11.25-10.62-26.7l-5.55-81.3h17"/><path class="cls-5" d="M275.5,650.5h0v-108h.25"/><path class="cls-6" d="M333.83,650.5h7.83c5.23,0,9.7-11.25,10.62-26.7l5.55-81.3h-16.5"/><path class="cls-7" d="M392.17,650.5h15.64c10.46,0,19.42-11.25,21.26-26.7l11.1-81.3H406.92"/><path class="cls-8" d="M450.5,650.5H474a32.39,32.39,0,0,0,31.88-26.7l16.65-81.3h-50"/><path class="cls-9" d="M494.5,129.09c-.51,0-1,0-1.53-.08s-1-.12-1.52-.22-1-.23-1.48-.38-1-.32-1.43-.51-.94-.42-1.38-.65-.89-.51-1.31-.79-.84-.59-1.24-.91a13.8,13.8,0,0,1-1.13-1c-.36-.36-.71-.74-1-1.13a13.59,13.59,0,0,1-.91-1.24,13.3,13.3,0,0,1-.78-1.31c-.24-.44-.46-.91-.66-1.38s-.36-.95-.51-1.43-.28-1-.38-1.48-.17-1-.22-1.52-.08-1-.08-1.53,0-1,.08-1.53.12-1,.22-1.52.23-1,.38-1.48.32-1,.51-1.43.42-.93.66-1.38a13.3,13.3,0,0,1,.78-1.31,12.21,12.21,0,0,1,.91-1.23,15.82,15.82,0,0,1,2.16-2.17c.4-.32.81-.63,1.24-.91s.86-.55,1.31-.79.91-.45,1.38-.65.95-.36,1.43-.51,1-.28,1.48-.38,1-.17,1.52-.22A14.23,14.23,0,0,1,496,98c.51.05,1,.12,1.52.22s1,.23,1.48.38,1,.32,1.43.51.94.42,1.38.65.89.51,1.31.79.84.59,1.24.91.77.67,1.13,1a15.69,15.69,0,0,1,1.94,2.37,13.3,13.3,0,0,1,.78,1.31q.36.68.66,1.38c.19.47.36.95.51,1.43s.28,1,.38,1.48.17,1,.22,1.52a14.67,14.67,0,0,1,0,3.06c-.05.51-.12,1-.22,1.52s-.23,1-.38,1.48-.32,1-.51,1.43-.42.94-.66,1.38a13.3,13.3,0,0,1-.78,1.31c-.28.43-.59.84-.91,1.24s-.67.77-1,1.13a15.69,15.69,0,0,1-2.37,1.94c-.42.28-.86.55-1.31.79s-.91.45-1.38.65-.95.36-1.43.51-1,.28-1.48.38-1,.17-1.52.22S495,129.09,494.5,129.09Z"/><path class="cls-9" d="M357.94,451a15.6,15.6,0,0,1-.31-22.05h0a15.6,15.6,0,0,1,22.05-.31h0a15.6,15.6,0,0,1,.31,22.05h0a15.57,15.57,0,0,1-11.18,4.72h0A15.56,15.56,0,0,1,357.94,451Zm29.69-32.79a15.59,15.59,0,0,1-4.39-21.61h0a15.59,15.59,0,0,1,21.6-4.39h0a15.58,15.58,0,0,1,4.4,21.6h0a15.59,15.59,0,0,1-13,7h0A15.55,15.55,0,0,1,387.63,418.2Zm23.64-37.41a15.58,15.58,0,0,1-6.88-21h0A15.58,15.58,0,0,1,425.33,353h0a15.58,15.58,0,0,1,6.89,20.94h0a15.61,15.61,0,0,1-13.93,8.56h0A15.49,15.49,0,0,1,411.27,380.79ZM430.68,341a15.58,15.58,0,0,1-8.54-20.32h0a15.59,15.59,0,0,1,20.33-8.54h0A15.6,15.6,0,0,1,451,332.49h0a15.61,15.61,0,0,1-14.44,9.7h0A15.5,15.5,0,0,1,430.68,341ZM447,299.89a15.59,15.59,0,0,1-9.73-19.79h0a15.6,15.6,0,0,1,19.79-9.73h0a15.6,15.6,0,0,1,9.73,19.79h0A15.61,15.61,0,0,1,452,300.73h0A15.52,15.52,0,0,1,447,299.89Zm13.95-42a15.61,15.61,0,0,1-10.66-19.31h0a15.59,15.59,0,0,1,19.31-10.66h0a15.59,15.59,0,0,1,10.65,19.3h0a15.59,15.59,0,0,1-15,11.26h0A15.83,15.83,0,0,1,461,257.89Zm12-42.6a15.58,15.58,0,0,1-11.41-18.86h0A15.58,15.58,0,0,1,480.4,185h0a15.59,15.59,0,0,1,11.42,18.86h0a15.6,15.6,0,0,1-15.13,11.87h0A15.54,15.54,0,0,1,473,215.29Zm10.34-43a15.58,15.58,0,0,1-12.1-18.43h0a15.57,15.57,0,0,1,18.42-12.1h0a15.57,15.57,0,0,1,12.11,18.42h0a15.59,15.59,0,0,1-15.25,12.44h0A15.76,15.76,0,0,1,483.29,172.24Z"/><path class="cls-9" d="M334.07,482.09a13.24,13.24,0,0,1-1.54-.08c-.5-.05-1-.12-1.51-.22s-1-.23-1.48-.38-1-.32-1.44-.51-.93-.42-1.38-.65-.89-.51-1.31-.79-.83-.59-1.23-.91-.78-.67-1.14-1-.7-.74-1-1.14a13.86,13.86,0,0,1-.9-1.23c-.28-.42-.55-.86-.79-1.31s-.45-.91-.65-1.38-.37-.95-.51-1.43-.28-1-.38-1.48-.18-1-.23-1.52-.07-1-.07-1.53,0-1,.07-1.53.13-1,.23-1.52.23-1,.38-1.48.32-1,.51-1.43a14.44,14.44,0,0,1,.65-1.38c.24-.45.5-.89.78-1.31s.59-.84.91-1.23.67-.78,1-1.14a13.94,13.94,0,0,1,1.14-1c.39-.32.81-.63,1.23-.91s.86-.54,1.31-.78.92-.46,1.38-.66,1-.36,1.44-.51,1-.28,1.48-.38,1-.17,1.51-.22a14.32,14.32,0,0,1,3.07,0,15.25,15.25,0,0,1,1.51.22,14.58,14.58,0,0,1,1.48.38q.74.23,1.44.51t1.38.66c.45.24.89.5,1.31.78a15.51,15.51,0,0,1,4.31,4.31c.28.42.54.86.78,1.31a14.44,14.44,0,0,1,.65,1.38c.2.47.37.95.52,1.43s.27,1,.37,1.48.18,1,.23,1.52.08,1,.08,1.53,0,1-.08,1.53-.13,1-.23,1.52-.22,1-.37,1.48-.32,1-.52,1.43a13.38,13.38,0,0,1-.65,1.38c-.24.45-.5.89-.78,1.31a15.51,15.51,0,0,1-4.31,4.31c-.42.28-.86.55-1.31.79s-.91.45-1.38.65-.95.36-1.44.51a14.58,14.58,0,0,1-1.48.38,15.25,15.25,0,0,1-1.51.22A13.07,13.07,0,0,1,334.07,482.09Z"/><path class="cls-9" d="M386.36,129.09c-.51,0-1,0-1.54-.08s-1-.12-1.51-.22-1-.23-1.48-.38-1-.32-1.44-.51-.93-.42-1.38-.65-.88-.51-1.31-.79-.83-.59-1.23-.91-.78-.67-1.14-1-.7-.74-1-1.13-.62-.81-.9-1.24-.55-.86-.79-1.31-.45-.91-.65-1.38-.37-.95-.51-1.43-.28-1-.38-1.48-.18-1-.23-1.52-.07-1-.07-1.53,0-1,.07-1.53.13-1,.23-1.52.23-1,.37-1.48.33-1,.52-1.43a14.44,14.44,0,0,1,.65-1.38c.24-.45.5-.89.78-1.31s.59-.84.91-1.23a15.17,15.17,0,0,1,2.17-2.17c.39-.32.81-.63,1.23-.91s.87-.55,1.31-.79.92-.45,1.38-.65,1-.36,1.44-.51,1-.28,1.48-.38,1-.17,1.51-.22a14.32,14.32,0,0,1,3.07,0,15.25,15.25,0,0,1,1.51.22,14.58,14.58,0,0,1,1.48.38q.74.22,1.44.51c.47.2.93.42,1.38.65s.89.51,1.31.79a15.51,15.51,0,0,1,4.31,4.31c.28.42.54.86.78,1.31a14.44,14.44,0,0,1,.65,1.38c.2.47.37.95.52,1.43s.27,1,.37,1.48.18,1,.23,1.52.08,1,.08,1.53,0,1-.08,1.53-.13,1-.23,1.52-.22,1-.37,1.48-.32,1-.52,1.43a13.38,13.38,0,0,1-.65,1.38c-.24.45-.5.89-.78,1.31s-.59.84-.91,1.24-.67.77-1,1.13a15.69,15.69,0,0,1-2.37,1.94c-.42.28-.86.55-1.31.79s-.91.45-1.38.65-.95.36-1.44.51a14.58,14.58,0,0,1-1.48.38,15.25,15.25,0,0,1-1.51.22C387.38,129.06,386.87,129.09,386.36,129.09Z"/><path class="cls-9" d="M318.56,440.94a15.6,15.6,0,0,1-8.5-20.35h0a15.6,15.6,0,0,1,20.35-8.49h0a15.58,15.58,0,0,1,8.49,20.34h0a15.58,15.58,0,0,1-14.42,9.67h0A15.46,15.46,0,0,1,318.56,440.94Z"/><path class="cls-9" d="M337,398.33A15.59,15.59,0,0,1,326.43,379h0a15.58,15.58,0,0,1,19.36-10.55h0a15.58,15.58,0,0,1,10.55,19.35h0A15.6,15.6,0,0,1,341.39,399h0A15.67,15.67,0,0,1,337,398.33Z"/><path class="cls-9" d="M349.37,354.37a15.6,15.6,0,0,1-11.69-18.7h0A15.59,15.59,0,0,1,356.38,324h0a15.59,15.59,0,0,1,11.69,18.69h0a15.6,15.6,0,0,1-15.18,12.09h0A15.77,15.77,0,0,1,349.37,354.37Z"/><path class="cls-9" d="M359.31,309.79a15.59,15.59,0,0,1-12.44-18.21h0a15.6,15.6,0,0,1,18.22-12.43h0a15.58,15.58,0,0,1,12.42,18.21h0a15.59,15.59,0,0,1-15.3,12.71h0A15.07,15.07,0,0,1,359.31,309.79Z"/><path class="cls-9" d="M367.53,264.88a15.59,15.59,0,0,1-13-17.83h0a15.58,15.58,0,0,1,17.83-13h0a15.58,15.58,0,0,1,13,17.82h0A15.6,15.6,0,0,1,370,265.07h0A15.52,15.52,0,0,1,367.53,264.88Z"/><path class="cls-9" d="M374.44,219.73A15.6,15.6,0,0,1,361,202.23h0a15.59,15.59,0,0,1,17.5-13.41h0a15.59,15.59,0,0,1,13.42,17.49h0a15.6,15.6,0,0,1-15.44,13.55h0A15.94,15.94,0,0,1,374.44,219.73Z"/><path class="cls-9" d="M380.26,174.42a15.59,15.59,0,0,1-13.8-17.2h0a15.59,15.59,0,0,1,17.2-13.8h0a15.6,15.6,0,0,1,13.8,17.2h0A15.6,15.6,0,0,1,382,174.51h0A16.66,16.66,0,0,1,380.26,174.42Z"/><path class="cls-9" d="M278.21,129.09c-.5,0-1,0-1.53-.08s-1-.12-1.51-.22a14.58,14.58,0,0,1-1.48-.38q-.74-.22-1.44-.51c-.47-.2-.93-.42-1.38-.65s-.89-.51-1.31-.79-.84-.59-1.23-.91a13.94,13.94,0,0,1-1.14-1c-.36-.36-.71-.74-1-1.13s-.63-.81-.91-1.24-.54-.86-.78-1.31a13.38,13.38,0,0,1-.65-1.38c-.2-.47-.37-.95-.52-1.43s-.27-1-.37-1.48-.18-1-.23-1.52-.08-1-.08-1.53,0-1,.08-1.53.13-1,.23-1.52.22-1,.37-1.48.32-1,.52-1.43a14.44,14.44,0,0,1,.65-1.38c.24-.45.5-.89.78-1.31a15.34,15.34,0,0,1,3.08-3.4c.39-.32.81-.63,1.23-.91s.86-.55,1.31-.79.91-.45,1.38-.65.95-.36,1.44-.51a14.58,14.58,0,0,1,1.48-.38c.5-.1,1-.17,1.51-.22a14.32,14.32,0,0,1,3.07,0c.5.05,1,.12,1.51.22a14.58,14.58,0,0,1,1.48.38q.74.22,1.44.51c.47.2.93.42,1.38.65s.89.51,1.31.79.84.59,1.23.91a13.94,13.94,0,0,1,1.14,1c.36.36.7.74,1,1.14s.62.8.91,1.23.54.86.78,1.31.45.91.65,1.38.37.95.51,1.43.28,1,.38,1.48.18,1,.23,1.52.07,1,.07,1.53,0,1-.07,1.53-.13,1-.23,1.52-.23,1-.38,1.48-.32,1-.51,1.43-.41.94-.65,1.38-.5.89-.78,1.31-.59.84-.91,1.24-.67.77-1,1.13a13.94,13.94,0,0,1-1.14,1c-.39.32-.81.63-1.23.91s-.87.55-1.31.79-.92.45-1.38.65-.95.36-1.44.51-1,.28-1.48.38-1,.17-1.51.22S278.72,129.09,278.21,129.09Z"/><path class="cls-9" d="M262.62,422.37a15.59,15.59,0,0,1,15.59-15.59h0a15.59,15.59,0,0,1,15.59,15.59h0A15.59,15.59,0,0,1,278.21,438h0A15.59,15.59,0,0,1,262.62,422.37Zm0-44.12a15.59,15.59,0,0,1,15.59-15.59h0a15.59,15.59,0,0,1,15.59,15.59h0a15.59,15.59,0,0,1-15.59,15.59h0A15.59,15.59,0,0,1,262.62,378.25Zm0-44.13a15.59,15.59,0,0,1,15.59-15.59h0a15.59,15.59,0,0,1,15.59,15.59h0a15.59,15.59,0,0,1-15.59,15.6h0A15.59,15.59,0,0,1,262.62,334.12Zm0-44.12a15.59,15.59,0,0,1,15.59-15.59h0A15.59,15.59,0,0,1,293.8,290h0a15.59,15.59,0,0,1-15.59,15.59h0A15.59,15.59,0,0,1,262.62,290Zm0-44.13a15.59,15.59,0,0,1,15.59-15.59h0a15.59,15.59,0,0,1,15.59,15.59h0a15.59,15.59,0,0,1-15.59,15.6h0A15.59,15.59,0,0,1,262.62,245.87Zm0-44.12a15.59,15.59,0,0,1,15.59-15.59h0a15.59,15.59,0,0,1,15.59,15.59h0a15.59,15.59,0,0,1-15.59,15.59h0A15.59,15.59,0,0,1,262.62,201.75Zm0-44.12A15.59,15.59,0,0,1,278.21,142h0a15.59,15.59,0,0,1,15.59,15.6h0a15.59,15.59,0,0,1-15.59,15.59h0A15.59,15.59,0,0,1,262.62,157.63Z"/><path class="cls-9" d="M278.21,482.09a13.18,13.18,0,0,1-1.53-.08c-.5-.05-1-.12-1.51-.22a14.58,14.58,0,0,1-1.48-.38q-.74-.23-1.44-.51c-.47-.2-.93-.42-1.38-.65s-.89-.51-1.31-.79-.84-.59-1.23-.91a15.51,15.51,0,0,1-3.08-3.4c-.28-.42-.54-.86-.78-1.31a14.44,14.44,0,0,1-.65-1.38c-.2-.47-.37-.95-.52-1.43s-.27-1-.37-1.48-.18-1-.23-1.52-.08-1-.08-1.53,0-1,.08-1.53.13-1,.23-1.52.22-1,.37-1.48.32-1,.52-1.43a14.44,14.44,0,0,1,.65-1.38c.24-.45.5-.89.78-1.31a15.51,15.51,0,0,1,4.31-4.31c.42-.28.86-.54,1.31-.78s.91-.46,1.38-.66.95-.36,1.44-.51a14.58,14.58,0,0,1,1.48-.38c.5-.1,1-.17,1.51-.22a14.32,14.32,0,0,1,3.07,0c.5.05,1,.12,1.51.22s1,.23,1.48.38,1,.32,1.44.51.93.42,1.38.66.89.5,1.31.78.84.59,1.23.91.78.67,1.14,1,.7.74,1,1.14.62.8.91,1.23.54.86.78,1.31.45.91.65,1.38.37.95.51,1.43.28,1,.38,1.48.18,1,.23,1.52.07,1,.07,1.53,0,1-.07,1.53-.13,1-.23,1.52-.23,1-.38,1.48-.32,1-.51,1.43-.41.94-.65,1.38-.5.89-.78,1.31-.59.84-.91,1.23-.67.78-1,1.14-.75.71-1.14,1-.81.63-1.23.91-.87.55-1.31.79-.92.45-1.38.65-1,.36-1.44.51-1,.28-1.48.38-1,.17-1.51.22A13.24,13.24,0,0,1,278.21,482.09Z"/><path class="cls-9" d="M61.74,129.09c.51,0,1,0,1.53-.08s1-.12,1.52-.22,1-.23,1.48-.38,1-.32,1.43-.51.94-.42,1.38-.65.89-.51,1.31-.79.84-.59,1.24-.91a13.8,13.8,0,0,0,1.13-1c.36-.36.71-.74,1-1.13a13.59,13.59,0,0,0,.91-1.24,13.3,13.3,0,0,0,.78-1.31c.24-.44.46-.91.66-1.38s.36-.95.51-1.43.28-1,.38-1.48.17-1,.22-1.52.08-1,.08-1.53,0-1-.08-1.53-.12-1-.22-1.52-.23-1-.38-1.48-.32-1-.51-1.43-.42-.93-.66-1.38a13.3,13.3,0,0,0-.78-1.31,12.21,12.21,0,0,0-.91-1.23,15.82,15.82,0,0,0-2.16-2.17c-.4-.32-.81-.63-1.24-.91s-.86-.55-1.31-.79-.91-.45-1.38-.65-1-.36-1.43-.51-1-.28-1.48-.38-1-.17-1.52-.22a14.23,14.23,0,0,0-3.06,0c-.51.05-1,.12-1.52.22s-1,.23-1.48.38-1,.32-1.43.51-.94.42-1.38.65-.89.51-1.31.79-.84.59-1.24.91-.77.67-1.13,1a15.69,15.69,0,0,0-1.94,2.37,13.3,13.3,0,0,0-.78,1.31q-.36.68-.66,1.38c-.19.47-.36.95-.51,1.43s-.28,1-.38,1.48-.17,1-.22,1.52a14.67,14.67,0,0,0,0,3.06c.05.51.12,1,.22,1.52s.23,1,.38,1.48.32,1,.51,1.43.42.94.66,1.38a13.3,13.3,0,0,0,.78,1.31c.28.43.59.84.91,1.24s.67.77,1,1.13a15.69,15.69,0,0,0,2.37,1.94c.42.28.86.55,1.31.79s.91.45,1.38.65.95.36,1.43.51,1,.28,1.48.38,1,.17,1.52.22S61.23,129.09,61.74,129.09Z"/><path class="cls-9" d="M198.3,451a15.6,15.6,0,0,0,.31-22.05h0a15.6,15.6,0,0,0-22.05-.31h0a15.6,15.6,0,0,0-.31,22.05h0a15.57,15.57,0,0,0,11.18,4.72h0A15.56,15.56,0,0,0,198.3,451ZM168.61,418.2A15.59,15.59,0,0,0,173,396.59h0a15.59,15.59,0,0,0-21.6-4.39h0a15.58,15.58,0,0,0-4.4,21.6h0a15.59,15.59,0,0,0,13,7h0A15.55,15.55,0,0,0,168.61,418.2ZM145,380.79a15.58,15.58,0,0,0,6.88-21h0A15.58,15.58,0,0,0,130.91,353h0A15.58,15.58,0,0,0,124,373.91h0A15.61,15.61,0,0,0,138,382.47h0A15.49,15.49,0,0,0,145,380.79ZM125.56,341a15.58,15.58,0,0,0,8.54-20.32h0a15.59,15.59,0,0,0-20.33-8.54h0a15.6,15.6,0,0,0-8.54,20.33h0a15.61,15.61,0,0,0,14.44,9.7h0A15.5,15.5,0,0,0,125.56,341Zm-16.32-41.13A15.59,15.59,0,0,0,119,280.1h0a15.6,15.6,0,0,0-19.79-9.73h0a15.6,15.6,0,0,0-9.73,19.79h0a15.61,15.61,0,0,0,14.76,10.57h0A15.52,15.52,0,0,0,109.24,299.89Zm-13.95-42A15.61,15.61,0,0,0,106,238.58h0a15.59,15.59,0,0,0-19.31-10.66h0A15.59,15.59,0,0,0,76,247.23h0A15.59,15.59,0,0,0,91,258.5h0A15.83,15.83,0,0,0,95.29,257.89Zm-12-42.6A15.58,15.58,0,0,0,94.7,196.43h0A15.58,15.58,0,0,0,75.84,185h0a15.59,15.59,0,0,0-11.42,18.86h0a15.6,15.6,0,0,0,15.13,11.87h0A15.54,15.54,0,0,0,83.29,215.29ZM73,172.24a15.58,15.58,0,0,0,12.1-18.43h0a15.57,15.57,0,0,0-18.42-12.1h0a15.57,15.57,0,0,0-12.11,18.42h0a15.59,15.59,0,0,0,15.25,12.44h0A15.76,15.76,0,0,0,73,172.24Z"/><path class="cls-9" d="M222.17,482.09a13.24,13.24,0,0,0,1.54-.08c.5-.05,1-.12,1.51-.22s1-.23,1.48-.38,1-.32,1.44-.51.93-.42,1.38-.65.89-.51,1.31-.79.83-.59,1.23-.91.78-.67,1.14-1,.7-.74,1-1.14a13.86,13.86,0,0,0,.9-1.23c.28-.42.55-.86.79-1.31s.45-.91.65-1.38.37-.95.51-1.43.28-1,.38-1.48.18-1,.23-1.52.07-1,.07-1.53,0-1-.07-1.53-.13-1-.23-1.52-.23-1-.38-1.48-.32-1-.51-1.43a14.44,14.44,0,0,0-.65-1.38c-.24-.45-.5-.89-.78-1.31s-.59-.84-.91-1.23-.67-.78-1-1.14a13.94,13.94,0,0,0-1.14-1c-.39-.32-.81-.63-1.23-.91s-.86-.54-1.31-.78-.92-.46-1.38-.66-1-.36-1.44-.51-1-.28-1.48-.38-1-.17-1.51-.22a14.32,14.32,0,0,0-3.07,0,15.25,15.25,0,0,0-1.51.22,14.58,14.58,0,0,0-1.48.38q-.74.23-1.44.51t-1.38.66c-.45.24-.89.5-1.31.78a15.51,15.51,0,0,0-4.31,4.31c-.28.42-.54.86-.78,1.31a14.44,14.44,0,0,0-.65,1.38c-.2.47-.37.95-.52,1.43s-.27,1-.37,1.48-.18,1-.23,1.52-.08,1-.08,1.53,0,1,.08,1.53.13,1,.23,1.52.22,1,.37,1.48.32,1,.52,1.43a13.38,13.38,0,0,0,.65,1.38c.24.45.5.89.78,1.31a15.51,15.51,0,0,0,4.31,4.31c.42.28.86.55,1.31.79s.91.45,1.38.65.95.36,1.44.51a14.58,14.58,0,0,0,1.48.38,15.25,15.25,0,0,0,1.51.22A13.07,13.07,0,0,0,222.17,482.09Z"/><path class="cls-9" d="M169.88,129.09c.51,0,1,0,1.54-.08s1-.12,1.51-.22,1-.23,1.48-.38,1-.32,1.44-.51.93-.42,1.38-.65.88-.51,1.31-.79.83-.59,1.23-.91.78-.67,1.14-1,.7-.74,1-1.13.62-.81.9-1.24.55-.86.79-1.31.45-.91.65-1.38.37-.95.51-1.43.28-1,.38-1.48.18-1,.23-1.52.07-1,.07-1.53,0-1-.07-1.53-.13-1-.23-1.52-.23-1-.37-1.48-.33-1-.52-1.43a14.44,14.44,0,0,0-.65-1.38c-.24-.45-.5-.89-.78-1.31s-.59-.84-.91-1.23a15.17,15.17,0,0,0-2.17-2.17c-.39-.32-.81-.63-1.23-.91s-.87-.55-1.31-.79-.92-.45-1.38-.65-1-.36-1.44-.51-1-.28-1.48-.38-1-.17-1.51-.22a14.32,14.32,0,0,0-3.07,0,15.25,15.25,0,0,0-1.51.22,14.58,14.58,0,0,0-1.48.38q-.74.22-1.44.51c-.47.2-.93.42-1.38.65s-.89.51-1.31.79a15.51,15.51,0,0,0-4.31,4.31c-.28.42-.54.86-.78,1.31a14.44,14.44,0,0,0-.65,1.38c-.2.47-.37.95-.52,1.43s-.27,1-.37,1.48-.18,1-.23,1.52-.08,1-.08,1.53,0,1,.08,1.53.13,1,.23,1.52.22,1,.37,1.48.32,1,.52,1.43a13.38,13.38,0,0,0,.65,1.38c.24.45.5.89.78,1.31s.59.84.91,1.24.67.77,1,1.13a15.69,15.69,0,0,0,2.37,1.94c.42.28.86.55,1.31.79s.91.45,1.38.65,1,.36,1.44.51a14.58,14.58,0,0,0,1.48.38,15.25,15.25,0,0,0,1.51.22C168.86,129.06,169.37,129.09,169.88,129.09Z"/><path class="cls-9" d="M237.68,440.94a15.6,15.6,0,0,0,8.5-20.35h0a15.6,15.6,0,0,0-20.35-8.49h0a15.58,15.58,0,0,0-8.49,20.34h0a15.58,15.58,0,0,0,14.42,9.67h0A15.46,15.46,0,0,0,237.68,440.94Z"/><path class="cls-9" d="M219.26,398.33A15.59,15.59,0,0,0,229.81,379h0a15.58,15.58,0,0,0-19.36-10.55h0a15.58,15.58,0,0,0-10.55,19.35h0A15.6,15.6,0,0,0,214.85,399h0A15.67,15.67,0,0,0,219.26,398.33Z"/><path class="cls-9" d="M206.87,354.37a15.6,15.6,0,0,0,11.69-18.7h0A15.59,15.59,0,0,0,199.86,324h0a15.59,15.59,0,0,0-11.69,18.69h0a15.6,15.6,0,0,0,15.18,12.09h0A15.77,15.77,0,0,0,206.87,354.37Z"/><path class="cls-9" d="M196.93,309.79a15.59,15.59,0,0,0,12.44-18.21h0a15.6,15.6,0,0,0-18.22-12.43h0a15.58,15.58,0,0,0-12.42,18.21h0A15.59,15.59,0,0,0,194,310.07h0A15.07,15.07,0,0,0,196.93,309.79Z"/><path class="cls-9" d="M188.71,264.88a15.59,15.59,0,0,0,13-17.83h0a15.58,15.58,0,0,0-17.83-13h0a15.58,15.58,0,0,0-13,17.82h0a15.6,15.6,0,0,0,15.38,13.17h0A15.52,15.52,0,0,0,188.71,264.88Z"/><path class="cls-9" d="M181.8,219.73a15.6,15.6,0,0,0,13.42-17.5h0a15.59,15.59,0,0,0-17.5-13.41h0a15.59,15.59,0,0,0-13.42,17.49h0a15.6,15.6,0,0,0,15.44,13.55h0A15.94,15.94,0,0,0,181.8,219.73Z"/><path class="cls-9" d="M176,174.42a15.59,15.59,0,0,0,13.8-17.2h0a15.59,15.59,0,0,0-17.2-13.8h0a15.6,15.6,0,0,0-13.8,17.2h0a15.6,15.6,0,0,0,15.48,13.89h0A16.66,16.66,0,0,0,176,174.42Z"/></svg>
